<?xml version="1.0" standalone="no"?>
<!DOCTYPE svg PUBLIC "-//W3C//DTD SVG 20010904//EN"
 "http://www.w3.org/TR/2001/REC-SVG-20010904/DTD/svg10.dtd">
<svg version="1.0" xmlns="http://www.w3.org/2000/svg"
 width="512.000000pt" height="512.000000pt" viewBox="0 0 512.000000 512.000000"
 preserveAspectRatio="xMidYMid meet">
<metadata>
Created by potrace 1.11, written by Peter Selinger 2001-2013
</metadata>
<g transform="translate(0.000000,512.000000) scale(0.100000,-0.100000)"
fill="#000000" stroke="none">
<path d="M2940 4835 c-7 -164 -48 -271 -142 -366 -73 -74 -77 -77 -292 -185
-173 -88 -275 -150 -316 -193 -82 -86 -151 -216 -166 -309 -3 -21 -8 -40 -10
-43 -2 -3 -6 -41 -9 -85 -4 -43 -8 -93 -9 -111 -2 -17 0 -36 3 -42 7 -10 308
-18 318 -8 3 3 6 42 8 86 11 252 77 349 325 469 147 73 158 80 242 163 100
100 145 223 134 367 -6 79 -39 203 -71 261 l-14 26 -1 -30z"/>
<path d="M3250 4135 c-2 -65 -10 -97 -32 -137 -28 -50 -76 -82 -192 -128 -199
-80 -250 -141 -272 -327 -6 -51 -6 -53 17 -54 55 -1 293 2 295 4 1 1 4 17 7
34 9 55 43 97 117 143 39 25 85 54 102 65 65 42 82 118 52 230 -9 33 -17 68
-18 77 0 9 -3 15 -5 12 -3 -3 -20 23 -38 58 l-32 63 -1 -40z"/>
<path d="M1455 3303 c-29 -8 -64 -53 -72 -93 -13 -68 -6 -470 11 -615 14 -117
19 -149 31 -225 56 -345 182 -624 340 -755 26 -22 53 -44 59 -50 11 -10 103
-56 121 -61 6 -1 35 -9 65 -18 46 -13 138 -15 555 -15 454 0 506 2 565 18 184
52 323 178 429 388 23 44 41 86 41 92 0 15 -3 16 86 -28 233 -113 486 -68 664
119 54 58 63 70 95 137 101 210 68 453 -85 625 -111 124 -258 189 -427 189
-60 0 -75 -2 -139 -20 -21 -6 -39 -9 -40 -8 -1 1 -4 56 -6 122 -5 132 -13 156
-61 185 -31 19 -59 20 -1122 19 -600 -1 -1099 -4 -1110 -6z m2555 -657 c85
-35 139 -113 140 -199 1 -189 -225 -284 -362 -153 -76 73 -84 194 -18 286 44
62 169 96 240 66z"/>
<path d="M642 1234 c-14 -10 -22 -26 -22 -44 0 -124 167 -233 455 -297 39 -8
241 -42 290 -48 28 -3 64 -8 80 -10 59 -8 201 -20 365 -30 372 -24 1128 -23
1500 0 30 2 100 6 155 10 55 3 107 8 115 10 8 2 47 6 85 10 143 13 312 41 447
75 264 66 401 171 389 297 -1 6 -8 19 -17 27 -14 14 -202 16 -1917 16 -1706 0
-1905 -2 -1925 -16z"/>
</g>
</svg>
